  0
SECTION
  2
HEADER
  9
$ACADVER
  1
AC1014
  9
$HANDSEED
  5
FFFF
  9
$MEASUREMENT
 70
     1
  0
ENDSEC
  0
SECTION
  2
TABLES
  0
TABLE
  2
VPORT
  5
8
330
0
100
AcDbSymbolTable
 70
     4
  0
VPORT
  5
2E
330
8
100
AcDbSymbolTableRecord
100
AcDbViewportTableRecord
  2
*ACTIVE
 70
     0
 10
0.0
 20
0.0
 11
1.0
 21
1.0
 12
210.0
 22
148.5
 13
0.0
 23
0.0
 14
10.0
 24
10.0
 15
10.0
 25
10.0
 16
0.0
 26
0.0
 36
1.0
 17
0.0
 27
0.0
 37
0.0
 40
341.0
 41
1.24
 42
50.0
 43
0.0
 44
0.0
 50
0.0
 51
0.0
 71
     0
 72
   100
 73
     1
 74
     3
 75
     0
 76
     0
 77
     0
 78
     0
  0
ENDTAB
  0
TABLE
  2
LTYPE
  5
5
330
0
100
AcDbSymbolTable
 70
     1
  0
LTYPE
  5
14
330
5
100
AcDbSymbolTableRecord
100
AcDbLinetypeTableRecord
  2
BYBLOCK
 70
     0
  3

 72
    65
 73
     0
 40
0.0
  0
LTYPE
  5
15
330
5
100
AcDbSymbolTableRecord
100
AcDbLinetypeTableRecord
  2
BYLAYER
 70
     0
  3

 72
    65
 73
     0
 40
0.0
  0
LTYPE
  5
16
330
5
100
AcDbSymbolTableRecord
100
AcDbLinetypeTableRecord
  2
CONTINUOUS
 70
     0
  3
Solid line
 72
    65
 73
     0
 40
0.0
  0
ENDTAB
  0
TABLE
  2
LAYER
  5
2
100
AcDbSymbolTable
 70
1
  0
LAYER
  5
50
100
AcDbSymbolTableRecord
100
AcDbLayerTableRecord
  2
0
 70
0
  6
CONTINUOUS
  0
ENDTAB
  0
TABLE
  2
STYLE
  5
3
330
0
100
AcDbSymbolTable
 70
     1
  0
STYLE
  5
11
330
3
100
AcDbSymbolTableRecord
100
AcDbTextStyleTableRecord
  2
STANDARD
 70
     0
 40
0.0
 41
1.0
 50
0.0
 71
     0
 42
2.5
  3
txt
  4

  0
ENDTAB
  0
TABLE
  2
VIEW
  5
6
330
0
100
AcDbSymbolTable
 70
     0
  0
ENDTAB
  0
TABLE
  2
UCS
  5
7
330
0
100
AcDbSymbolTable
 70
     0
  0
ENDTAB
  0
TABLE
  2
APPID
  5
9
330
0
100
AcDbSymbolTable
 70
     2
  0
APPID
  5
12
330
9
100
AcDbSymbolTableRecord
100
AcDbRegAppTableRecord
  2
ACAD
 70
     0
  0
ENDTAB
  0
TABLE
  2
DIMSTYLE
  5
A
330
0
100
AcDbSymbolTable
 70
     1
  0
DIMSTYLE
105
27
330
A
100
AcDbSymbolTableRecord
100
AcDbDimStyleTableRecord
  2
ISO-25
 70
     0
  3

  4

  5

  6

  7

 40
1.0
 41
2.5
 42
0.625
 43
3.75
 44
1.25
 45
0.0
 46
0.0
 47
0.0
 48
0.0
140
2.5
141
2.5
142
0.0
143
0.03937007874016
144
1.0
145
0.0
146
1.0
147
0.625
 71
     0
 72
     0
 73
     0
 74
     0
 75
     0
 76
     0
 77
     1
 78
     8
170
     0
171
     3
172
     1
173
     0
174
     0
175
     0
176
     0
177
     0
178
     0
270
     2
271
     2
272
     2
273
     2
274
     3
340
11
275
     0
280
     0
281
     0
282
     0
283
     0
284
     8
285
     0
286
     0
287
     3
288
     0
  0
ENDTAB
  0
TABLE
  2
BLOCK_RECORD
  5
1
330
0
100
AcDbSymbolTable
 70
     1
  0
BLOCK_RECORD
  5
1F
330
1
100
AcDbSymbolTableRecord
100
AcDbBlockTableRecord
  2
*MODEL_SPACE
  0
BLOCK_RECORD
  5
1B
330
1
100
AcDbSymbolTableRecord
100
AcDbBlockTableRecord
  2
*PAPER_SPACE
  0
ENDTAB
  0
ENDSEC
  0
SECTION
  2
BLOCKS
  0
BLOCK
  5
20
330
1F
100
AcDbEntity
  8
0
100
AcDbBlockBegin
  2
*MODEL_SPACE
 70
     0
 10
0.0
 20
0.0
 30
0.0
  3
*MODEL_SPACE
  1

  0
ENDBLK
  5
21
330
1F
100
AcDbEntity
  8
0
100
AcDbBlockEnd
  0
BLOCK
  5
1C
330
1B
100
AcDbEntity
 67
     1
  8
0
100
AcDbBlockBegin
  2
*PAPER_SPACE
  1

  0
ENDBLK
  5
1D
330
1B
100
AcDbEntity
 67
     1
  8
0
100
AcDbBlockEnd
  0
ENDSEC
  0
SECTION
  2
ENTITIES
  0
SPLINE
  5
100
100
AcDbEntity
  8
0
 62
7
100
AcDbSpline
 70
8
 71
3
 72
8
 73
4
 74
0
 40
0
 40
0
 40
0
 40
0
 40
1
 40
1
 40
1
 40
1
 10
22.429910
 20
0.375005
 30
0.0
 10
21.958822
 20
0.718979
 30
0.0
 10
21.905371
 20
1.195205
 30
0.0
 10
21.784028
 20
6.129692
 30
0.0
  0
SPLINE
  5
101
100
AcDbEntity
  8
0
 62
7
100
AcDbSpline
 70
8
 71
3
 72
8
 73
4
 74
0
 40
0
 40
0
 40
0
 40
0
 40
1
 40
1
 40
1
 40
1
 10
11.024048
 20
11.641667
 30
0.0
 10
5.178820
 20
11.714427
 30
0.0
 10
0.307179
 20
11.863255
 30
0.0
 10
0.198180
 20
11.972396
 30
0.0
  0
SPLINE
  5
102
100
AcDbEntity
  8
0
 62
7
100
AcDbSpline
 70
8
 71
3
 72
8
 73
4
 74
0
 40
0
 40
0
 40
0
 40
0
 40
1
 40
1
 40
1
 40
1
 10
0.198180
 20
11.972396
 30
0.0
 10
0.089181
 20
12.081536
 30
0.0
 10
0.000000
 20
12.505605
 30
0.0
 10
0.000000
 20
12.914770
 30
0.0
  0
SPLINE
  5
103
100
AcDbEntity
  8
0
 62
7
100
AcDbSpline
 70
8
 71
3
 72
8
 73
4
 74
0
 40
0
 40
0
 40
0
 40
0
 40
1
 40
1
 40
1
 40
1
 10
0.000000
 20
12.914770
 30
0.0
 10
0.000000
 20
13.491125
 30
0.0
 10
1.559554
 20
15.605773
 30
0.0
 10
6.923263
 20
22.302237
 30
0.0
  0
SPLINE
  5
104
100
AcDbEntity
  8
0
 62
7
100
AcDbSpline
 70
8
 71
3
 72
8
 73
4
 74
0
 40
0
 40
0
 40
0
 40
0
 40
1
 40
1
 40
1
 40
1
 10
6.923263
 20
22.302237
 30
0.0
 10
10.731059
 20
27.056181
 30
0.0
 10
13.846528
 20
31.007659
 30
0.0
 10
13.846528
 20
31.083300
 30
0.0
  0
SPLINE
  5
105
100
AcDbEntity
  8
0
 62
7
100
AcDbSpline
 70
8
 71
3
 72
8
 73
4
 74
0
 40
0
 40
0
 40
0
 40
0
 40
1
 40
1
 40
1
 40
1
 10
13.846528
 20
31.083300
 30
0.0
 10
13.846528
 20
31.158945
 30
0.0
 10
11.729895
 20
31.220833
 30
0.0
 10
9.142900
 20
31.220833
 30
0.0
  0
SPLINE
  5
106
100
AcDbEntity
  8
0
 62
7
100
AcDbSpline
 70
8
 71
3
 72
8
 73
4
 74
0
 40
0
 40
0
 40
0
 40
0
 40
1
 40
1
 40
1
 40
1
 10
9.142900
 20
31.220833
 30
0.0
 10
4.001207
 20
31.220833
 30
0.0
 10
3.263194
 20
31.405354
 30
0.0
 10
3.263194
 20
32.690898
 30
0.0
  0
SPLINE
  5
107
100
AcDbEntity
  8
0
 62
7
100
AcDbSpline
 70
8
 71
3
 72
8
 73
4
 74
0
 40
0
 40
0
 40
0
 40
0
 40
1
 40
1
 40
1
 40
1
 10
3.263194
 20
32.690898
 30
0.0
 10
3.263194
 20
33.139695
 30
0.0
 10
5.486747
 20
36.121745
 30
0.0
 10
10.539236
 20
42.448940
 30
0.0
  0
SPLINE
  5
108
100
AcDbEntity
  8
0
 62
7
100
AcDbSpline
 70
8
 71
3
 72
8
 73
4
 74
0
 40
0
 40
0
 40
0
 40
0
 40
1
 40
1
 40
1
 40
1
 10
10.539236
 20
42.448940
 30
0.0
 10
14.541059
 20
47.460392
 30
0.0
 10
17.815278
 20
51.687177
 30
0.0
 10
17.815278
 20
51.841794
 30
0.0
  0
SPLINE
  5
109
100
AcDbEntity
  8
0
 62
7
100
AcDbSpline
 70
8
 71
3
 72
8
 73
4
 74
0
 40
0
 40
0
 40
0
 40
0
 40
1
 40
1
 40
1
 40
1
 10
17.815278
 20
51.841794
 30
0.0
 10
17.815278
 20
52.026770
 30
0.0
 10
16.555811
 20
52.122917
 30
0.0
 10
14.132751
 20
52.122917
 30
0.0
  0
SPLINE
  5
10a
100
AcDbEntity
  8
0
 62
7
100
AcDbSpline
 70
8
 71
3
 72
8
 73
4
 74
0
 40
0
 40
0
 40
0
 40
0
 40
1
 40
1
 40
1
 40
1
 10
14.132751
 20
52.122917
 30
0.0
 10
12.107361
 20
52.122917
 30
0.0
 10
10.261892
 20
52.195185
 30
0.0
 10
10.031710
 20
52.283516
 30
0.0
  0
SPLINE
  5
10b
100
AcDbEntity
  8
0
 62
7
100
AcDbSpline
 70
8
 71
3
 72
8
 73
4
 74
0
 40
0
 40
0
 40
0
 40
0
 40
1
 40
1
 40
1
 40
1
 10
10.031710
 20
52.283516
 30
0.0
 10
9.781633
 20
52.379478
 30
0.0
 10
9.613194
 20
52.756623
 30
0.0
 10
9.613194
 20
53.220591
 30
0.0
  0
SPLINE
  5
10c
100
AcDbEntity
  8
0
 62
7
100
AcDbSpline
 70
8
 71
3
 72
8
 73
4
 74
0
 40
0
 40
0
 40
0
 40
0
 40
1
 40
1
 40
1
 40
1
 10
9.613194
 20
53.220591
 30
0.0
 10
9.613194
 20
53.839099
 30
0.0
 10
10.985787
 20
55.709831
 30
0.0
 10
16.360069
 20
62.416031
 30
0.0
  0
SPLINE
  5
10d
100
AcDbEntity
  8
0
 62
7
100
AcDbSpline
 70
8
 71
3
 72
8
 73
4
 74
0
 40
0
 40
0
 40
0
 40
0
 40
1
 40
1
 40
1
 40
1
 10
16.360069
 20
62.416031
 30
0.0
 10
20.070851
 20
67.046462
 30
0.0
 10
23.106944
 20
70.900685
 30
0.0
 10
23.106944
 20
70.980973
 30
0.0
  0
SPLINE
  5
10e
100
AcDbEntity
  8
0
 62
7
100
AcDbSpline
 70
8
 71
3
 72
8
 73
4
 74
0
 40
0
 40
0
 40
0
 40
0
 40
1
 40
1
 40
1
 40
1
 10
23.106944
 20
70.980973
 30
0.0
 10
23.106944
 20
71.061260
 30
0.0
 10
22.755721
 20
70.994387
 30
0.0
 10
22.326450
 20
70.832348
 30
0.0
  0
SPLINE
  5
10f
100
AcDbEntity
  8
0
 62
7
100
AcDbSpline
 70
8
 71
3
 72
8
 73
4
 74
0
 40
0
 40
0
 40
0
 40
0
 40
1
 40
1
 40
1
 40
1
 10
22.326450
 20
70.832348
 30
0.0
 10
21.671011
 20
70.584947
 30
0.0
 10
21.459045
 20
70.616398
 30
0.0
 10
21.003533
 20
71.028629
 30
0.0
  0
SPLINE
  5
110
100
AcDbEntity
  8
0
 62
7
100
AcDbSpline
 70
8
 71
3
 72
8
 73
4
 74
0
 40
0
 40
0
 40
0
 40
0
 40
1
 40
1
 40
1
 40
1
 10
21.003533
 20
71.028629
 30
0.0
 10
20.394947
 20
71.579394
 30
0.0
 10
20.316011
 20
72.599036
 30
0.0
 10
20.704253
 20
74.894637
 30
0.0
  0
SPLINE
  5
111
100
AcDbEntity
  8
0
 62
7
100
AcDbSpline
 70
8
 71
3
 72
8
 73
4
 74
0
 40
0
 40
0
 40
0
 40
0
 40
1
 40
1
 40
1
 40
1
 10
20.704253
 20
74.894637
 30
0.0
 10
21.259097
 20
78.175318
 30
0.0
 10
21.245556
 20
78.450636
 30
0.0
 10
20.488990
 20
79.271277
 30
0.0
  0
SPLINE
  5
112
100
AcDbEntity
  8
0
 62
7
100
AcDbSpline
 70
8
 71
3
 72
8
 73
4
 74
0
 40
0
 40
0
 40
0
 40
0
 40
1
 40
1
 40
1
 40
1
 10
20.488990
 20
79.271277
 30
0.0
 10
20.101000
 20
79.692127
 30
0.0
 10
19.043037
 20
80.837127
 30
0.0
 10
18.137958
 20
81.815723
 30
0.0
  0
SPLINE
  5
113
100
AcDbEntity
  8
0
 62
7
100
AcDbSpline
 70
8
 71
3
 72
8
 73
4
 74
0
 40
0
 40
0
 40
0
 40
0
 40
1
 40
1
 40
1
 40
1
 10
18.137958
 20
81.815723
 30
0.0
 10
15.471773
 20
84.698474
 30
0.0
 10
15.825365
 20
85.337727
 30
0.0
 10
20.580713
 20
86.231948
 30
0.0
  0
SPLINE
  5
114
100
AcDbEntity
  8
0
 62
7
100
AcDbSpline
 70
8
 71
3
 72
8
 73
4
 74
0
 40
0
 40
0
 40
0
 40
0
 40
1
 40
1
 40
1
 40
1
 10
20.580713
 20
86.231948
 30
0.0
 10
22.174463
 20
86.531646
 30
0.0
 10
23.635749
 20
86.934161
 30
0.0
 10
23.828013
 20
87.126426
 30
0.0
  0
SPLINE
  5
115
100
AcDbEntity
  8
0
 62
7
100
AcDbSpline
 70
8
 71
3
 72
8
 73
4
 74
0
 40
0
 40
0
 40
0
 40
0
 40
1
 40
1
 40
1
 40
1
 10
23.828013
 20
87.126426
 30
0.0
 10
24.210233
 20
87.508647
 30
0.0
 10
24.750316
 20
88.430542
 30
0.0
 10
26.058133
 20
90.933135
 30
0.0
  0
SPLINE
  5
116
100
AcDbEntity
  8
0
 62
7
100
AcDbSpline
 70
8
 71
3
 72
8
 73
4
 74
0
 40
0
 40
0
 40
0
 40
0
 40
1
 40
1
 40
1
 40
1
 10
26.058133
 20
90.933135
 30
0.0
 10
27.047783
 20
92.826898
 30
0.0
 10
27.796051
 20
93.372266
 30
0.0
 10
28.785913
 20
92.921255
 30
0.0
  0
SPLINE
  5
117
100
AcDbEntity
  8
0
 62
7
100
AcDbSpline
 70
8
 71
3
 72
8
 73
4
 74
0
 40
0
 40
0
 40
0
 40
0
 40
1
 40
1
 40
1
 40
1
 10
28.785913
 20
92.921255
 30
0.0
 10
29.146934
 20
92.756761
 30
0.0
 10
29.623359
 20
92.231171
 30
0.0
 10
29.844630
 20
91.753276
 30
0.0
  0
SPLINE
  5
118
100
AcDbEntity
  8
0
 62
7
100
AcDbSpline
 70
8
 71
3
 72
8
 73
4
 74
0
 40
0
 40
0
 40
0
 40
0
 40
1
 40
1
 40
1
 40
1
 10
29.844630
 20
91.753276
 30
0.0
 10
30.455145
 20
90.434712
 30
0.0
 10
32.200681
 20
87.373346
 30
0.0
 10
32.529447
 20
87.044582
 30
0.0
  0
SPLINE
  5
119
100
AcDbEntity
  8
0
 62
7
100
AcDbSpline
 70
8
 71
3
 72
8
 73
4
 74
0
 40
0
 40
0
 40
0
 40
0
 40
1
 40
1
 40
1
 40
1
 10
32.529447
 20
87.044582
 30
0.0
 10
32.689400
 20
86.884626
 30
0.0
 10
33.810318
 20
86.580914
 30
0.0
 10
35.020374
 20
86.369667
 30
0.0
  0
SPLINE
  5
11a
100
AcDbEntity
  8
0
 62
7
100
AcDbSpline
 70
8
 71
3
 72
8
 73
4
 74
0
 40
0
 40
0
 40
0
 40
0
 40
1
 40
1
 40
1
 40
1
 10
35.020374
 20
86.369667
 30
0.0
 10
38.937602
 20
85.685810
 30
0.0
 10
40.040277
 20
85.222338
 30
0.0
 10
40.040277
 20
84.259725
 30
0.0
  0
SPLINE
  5
11b
100
AcDbEntity
  8
0
 62
7
100
AcDbSpline
 70
8
 71
3
 72
8
 73
4
 74
0
 40
0
 40
0
 40
0
 40
0
 40
1
 40
1
 40
1
 40
1
 10
40.040277
 20
84.259725
 30
0.0
 10
40.040277
 20
83.896340
 30
0.0
 10
38.667970
 20
82.242729
 30
0.0
 10
36.425664
 20
79.904167
 30
0.0
  0
SPLINE
  5
11c
100
AcDbEntity
  8
0
 62
7
100
AcDbSpline
 70
8
 71
3
 72
8
 73
4
 74
0
 40
0
 40
0
 40
0
 40
0
 40
1
 40
1
 40
1
 40
1
 10
36.425664
 20
79.904167
 30
0.0
 10
35.797773
 20
79.249323
 30
0.0
 10
35.282635
 20
78.470635
 30
0.0
 10
35.280912
 20
78.173749
 30
0.0
  0
SPLINE
  5
11d
100
AcDbEntity
  8
0
 62
7
100
AcDbSpline
 70
8
 71
3
 72
8
 73
4
 74
0
 40
0
 40
0
 40
0
 40
0
 40
1
 40
1
 40
1
 40
1
 10
35.280912
 20
78.173749
 30
0.0
 10
35.279060
 20
77.876863
 30
0.0
 10
35.466951
 20
76.273231
 30
0.0
 10
35.698165
 20
74.610121
 30
0.0
  0
LWPOLYLINE
  5
11e
100
AcDbEntity
  8
0
 62
7
100
AcDbPolyline
 90
3
 70
0
 10
21.784028
 20
6.129692
 30
0.0
 10
21.651736
 20
11.509375
 30
0.0
 10
11.024048
 20
11.641667
 30
0.0
  0
SPLINE
  5
11f
100
AcDbEntity
  8
0
 62
7
100
AcDbSpline
 70
8
 71
3
 72
8
 73
4
 74
0
 40
0
 40
0
 40
0
 40
0
 40
1
 40
1
 40
1
 40
1
 10
35.536561
 20
71.115018
 30
0.0
 10
34.853144
 20
70.561621
 30
0.0
 10
34.402842
 20
70.524733
 30
0.0
 10
33.698720
 20
70.964465
 30
0.0
  0
SPLINE
  5
120
100
AcDbEntity
  8
0
 62
7
100
AcDbSpline
 70
8
 71
3
 72
8
 73
4
 74
0
 40
0
 40
0
 40
0
 40
0
 40
1
 40
1
 40
1
 40
1
 10
33.698720
 20
70.964465
 30
0.0
 10
32.975505
 20
71.416120
 30
0.0
 10
32.700296
 20
71.005949
 30
0.0
 10
33.312656
 20
70.389076
 30
0.0
  0
SPLINE
  5
121
100
AcDbEntity
  8
0
 62
7
100
AcDbSpline
 70
8
 71
3
 72
8
 73
4
 74
0
 40
0
 40
0
 40
0
 40
0
 40
1
 40
1
 40
1
 40
1
 10
33.312656
 20
70.389076
 30
0.0
 10
33.593109
 20
70.106556
 30
0.0
 10
33.941631
 20
69.719619
 30
0.0
 10
34.087152
 20
69.529214
 30
0.0
  0
SPLINE
  5
122
100
AcDbEntity
  8
0
 62
7
100
AcDbSpline
 70
8
 71
3
 72
8
 73
4
 74
0
 40
0
 40
0
 40
0
 40
0
 40
1
 40
1
 40
1
 40
1
 10
34.087152
 20
69.529214
 30
0.0
 10
34.944508
 20
68.407426
 30
0.0
 10
36.494900
 20
66.478015
 30
0.0
 10
36.848836
 20
66.092390
 30
0.0
  0
SPLINE
  5
123
100
AcDbEntity
  8
0
 62
7
100
AcDbSpline
 70
8
 71
3
 72
8
 73
4
 74
0
 40
0
 40
0
 40
0
 40
0
 40
1
 40
1
 40
1
 40
1
 10
36.848836
 20
66.092390
 30
0.0
 10
37.374343
 20
65.519834
 30
0.0
 10
37.516882
 20
65.342013
 30
0.0
 10
39.244961
 20
63.103125
 30
0.0
  0
SPLINE
  5
124
100
AcDbEntity
  8
0
 62
7
100
AcDbSpline
 70
8
 71
3
 72
8
 73
4
 74
0
 40
0
 40
0
 40
0
 40
0
 40
1
 40
1
 40
1
 40
1
 10
39.244961
 20
63.103125
 30
0.0
 10
40.031202
 20
62.084479
 30
0.0
 10
40.859213
 20
61.048397
 30
0.0
 10
41.084987
 20
60.800723
 30
0.0
  0
SPLINE
  5
125
100
AcDbEntity
  8
0
 62
7
100
AcDbSpline
 70
8
 71
3
 72
8
 73
4
 74
0
 40
0
 40
0
 40
0
 40
0
 40
1
 40
1
 40
1
 40
1
 10
41.084987
 20
60.800723
 30
0.0
 10
41.310761
 20
60.553047
 30
0.0
 10
41.621109
 20
60.195860
 30
0.0
 10
41.774647
 20
60.006973
 30
0.0
  0
SPLINE
  5
126
100
AcDbEntity
  8
0
 62
7
100
AcDbSpline
 70
8
 71
3
 72
8
 73
4
 74
0
 40
0
 40
0
 40
0
 40
0
 40
1
 40
1
 40
1
 40
1
 10
41.774647
 20
60.006973
 30
0.0
 10
48.278788
 20
52.005439
 30
0.0
 10
48.273880
 20
52.122917
 30
0.0
 10
42.104027
 20
52.122917
 30
0.0
  0
SPLINE
  5
127
100
AcDbEntity
  8
0
 62
7
100
AcDbSpline
 70
8
 71
3
 72
8
 73
4
 74
0
 40
0
 40
0
 40
0
 40
0
 40
1
 40
1
 40
1
 40
1
 10
42.104027
 20
52.122917
 30
0.0
 10
39.950319
 20
52.122917
 30
0.0
 10
38.188194
 20
52.062335
 30
0.0
 10
38.188194
 20
51.988289
 30
0.0
  0
SPLINE
  5
128
100
AcDbEntity
  8
0
 62
7
100
AcDbSpline
 70
8
 71
3
 72
8
 73
4
 74
0
 40
0
 40
0
 40
0
 40
0
 40
1
 40
1
 40
1
 40
1
 10
38.188194
 20
51.988289
 30
0.0
 10
38.188194
 20
51.858635
 30
0.0
 10
45.457901
 20
42.614437
 30
0.0
 10
46.197065
 20
41.804167
 30
0.0
  0
SPLINE
  5
129
100
AcDbEntity
  8
0
 62
7
100
AcDbSpline
 70
8
 71
3
 72
8
 73
4
 74
0
 40
0
 40
0
 40
0
 40
0
 40
1
 40
1
 40
1
 40
1
 10
46.197065
 20
41.804167
 30
0.0
 10
46.396190
 20
41.585885
 30
0.0
 10
47.137981
 20
40.633385
 30
0.0
 10
47.845485
 20
39.687500
 30
0.0
  0
SPLINE
  5
12a
100
AcDbEntity
  8
0
 62
7
100
AcDbSpline
 70
8
 71
3
 72
8
 73
4
 74
0
 40
0
 40
0
 40
0
 40
0
 40
1
 40
1
 40
1
 40
1
 10
47.845485
 20
39.687500
 30
0.0
 10
48.552989
 20
38.741615
 30
0.0
 10
49.292531
 20
37.789115
 30
0.0
 10
49.488908
 20
37.570833
 30
0.0
  0
SPLINE
  5
12b
100
AcDbEntity
  8
0
 62
7
100
AcDbSpline
 70
8
 71
3
 72
8
 73
4
 74
0
 40
0
 40
0
 40
0
 40
0
 40
1
 40
1
 40
1
 40
1
 10
49.488908
 20
37.570833
 30
0.0
 10
51.419069
 20
35.425375
 30
0.0
 10
53.004860
 20
33.183780
 30
0.0
 10
53.004860
 20
32.600858
 30
0.0
  0
SPLINE
  5
12c
100
AcDbEntity
  8
0
 62
7
100
AcDbSpline
 70
8
 71
3
 72
8
 73
4
 74
0
 40
0
 40
0
 40
0
 40
0
 40
1
 40
1
 40
1
 40
1
 10
53.004860
 20
32.600858
 30
0.0
 10
53.004860
 20
31.413783
 30
0.0
 10
52.182781
 20
31.220833
 30
0.0
 10
47.125154
 20
31.220833
 30
0.0
  0
SPLINE
  5
12d
100
AcDbEntity
  8
0
 62
7
100
AcDbSpline
 70
8
 71
3
 72
8
 73
4
 74
0
 40
0
 40
0
 40
0
 40
0
 40
1
 40
1
 40
1
 40
1
 10
47.125154
 20
31.220833
 30
0.0
 10
44.292898
 20
31.220833
 30
0.0
 10
42.421527
 20
31.119667
 30
0.0
 10
42.421527
 20
30.966558
 30
0.0
  0
SPLINE
  5
12e
100
AcDbEntity
  8
0
 62
7
100
AcDbSpline
 70
8
 71
3
 72
8
 73
4
 74
0
 40
0
 40
0
 40
0
 40
0
 40
1
 40
1
 40
1
 40
1
 10
42.421527
 20
30.966558
 30
0.0
 10
42.421527
 20
30.826705
 30
0.0
 10
42.638448
 20
30.499283
 30
0.0
 10
42.903574
 20
30.238954
 30
0.0
  0
SPLINE
  5
12f
100
AcDbEntity
  8
0
 62
7
100
AcDbSpline
 70
8
 71
3
 72
8
 73
4
 74
0
 40
0
 40
0
 40
0
 40
0
 40
1
 40
1
 40
1
 40
1
 10
42.903574
 20
30.238954
 30
0.0
 10
43.168700
 20
29.978623
 30
0.0
 10
43.963810
 20
28.991719
 30
0.0
 10
44.670485
 20
28.045833
 30
0.0
  0
SPLINE
  5
130
100
AcDbEntity
  8
0
 62
7
100
AcDbSpline
 70
8
 71
3
 72
8
 73
4
 74
0
 40
0
 40
0
 40
0
 40
0
 40
1
 40
1
 40
1
 40
1
 10
44.670485
 20
28.045833
 30
0.0
 10
45.377161
 20
27.099948
 30
0.0
 10
46.142505
 20
26.123397
 30
0.0
 10
46.371251
 20
25.875723
 30
0.0
  0
SPLINE
  5
131
100
AcDbEntity
  8
0
 62
7
100
AcDbSpline
 70
8
 71
3
 72
8
 73
4
 74
0
 40
0
 40
0
 40
0
 40
0
 40
1
 40
1
 40
1
 40
1
 10
46.371251
 20
25.875723
 30
0.0
 10
46.847167
 20
25.360421
 30
0.0
 10
46.734923
 20
25.502449
 30
0.0
 10
49.151876
 20
22.357292
 30
0.0
  0
SPLINE
  5
132
100
AcDbEntity
  8
0
 62
7
100
AcDbSpline
 70
8
 71
3
 72
8
 73
4
 74
0
 40
0
 40
0
 40
0
 40
0
 40
1
 40
1
 40
1
 40
1
 10
49.151876
 20
22.357292
 30
0.0
 10
50.158327
 20
21.047604
 30
0.0
 10
51.169088
 20
19.773397
 30
0.0
 10
51.398011
 20
19.525723
 30
0.0
  0
SPLINE
  5
133
100
AcDbEntity
  8
0
 62
7
100
AcDbSpline
 70
8
 71
3
 72
8
 73
4
 74
0
 40
0
 40
0
 40
0
 40
0
 40
1
 40
1
 40
1
 40
1
 10
51.398011
 20
19.525723
 30
0.0
 10
51.626934
 20
19.278047
 30
0.0
 10
51.934856
 20
18.920860
 30
0.0
 10
52.082279
 20
18.731973
 30
0.0
  0
SPLINE
  5
134
100
AcDbEntity
  8
0
 62
7
100
AcDbSpline
 70
8
 71
3
 72
8
 73
4
 74
0
 40
0
 40
0
 40
0
 40
0
 40
1
 40
1
 40
1
 40
1
 10
52.082279
 20
18.731973
 30
0.0
 10
52.229702
 20
18.543085
 30
0.0
 10
53.211968
 20
17.290624
 30
0.0
 10
54.265092
 20
15.948723
 30
0.0
  0
SPLINE
  5
135
100
AcDbEntity
  8
0
 62
7
100
AcDbSpline
 70
8
 71
3
 72
8
 73
4
 74
0
 40
0
 40
0
 40
0
 40
0
 40
1
 40
1
 40
1
 40
1
 10
54.265092
 20
15.948723
 30
0.0
 10
56.156214
 20
13.539039
 30
0.0
 10
56.523885
 20
12.620691
 30
0.0
 10
55.862360
 20
11.959167
 30
0.0
  0
SPLINE
  5
136
100
AcDbEntity
  8
0
 62
7
100
AcDbSpline
 70
8
 71
3
 72
8
 73
4
 74
0
 40
0
 40
0
 40
0
 40
0
 40
1
 40
1
 40
1
 40
1
 10
55.862360
 20
11.959167
 30
0.0
 10
55.626349
 20
11.723156
 30
0.0
 10
52.915595
 20
11.641667
 30
0.0
 10
45.300667
 20
11.641667
 30
0.0
  0
SPLINE
  5
137
100
AcDbEntity
  8
0
 62
7
100
AcDbSpline
 70
8
 71
3
 72
8
 73
4
 74
0
 40
0
 40
0
 40
0
 40
0
 40
1
 40
1
 40
1
 40
1
 10
45.300667
 20
11.641667
 30
0.0
 10
39.666360
 20
11.641667
 30
0.0
 10
34.868141
 20
11.569398
 30
0.0
 10
34.637959
 20
11.481067
 30
0.0
  0
SPLINE
  5
138
100
AcDbEntity
  8
0
 62
7
100
AcDbSpline
 70
8
 71
3
 72
8
 73
4
 74
0
 40
0
 40
0
 40
0
 40
0
 40
1
 40
1
 40
1
 40
1
 10
34.637959
 20
11.481067
 30
0.0
 10
34.275292
 20
11.341899
 30
0.0
 10
34.219444
 20
10.601690
 30
0.0
 10
34.219444
 20
5.934125
 30
0.0
  0
SPLINE
  5
139
100
AcDbEntity
  8
0
 62
7
100
AcDbSpline
 70
8
 71
3
 72
8
 73
4
 74
0
 40
0
 40
0
 40
0
 40
0
 40
1
 40
1
 40
1
 40
1
 10
34.219444
 20
5.934125
 30
0.0
 10
34.219444
 20
0.879597
 30
0.0
 10
34.187916
 20
0.530913
 30
0.0
 10
33.707671
 20
0.273891
 30
0.0
  0
SPLINE
  5
13a
100
AcDbEntity
  8
0
 62
7
100
AcDbSpline
 70
8
 71
3
 72
8
 73
4
 74
0
 40
0
 40
0
 40
0
 40
0
 40
1
 40
1
 40
1
 40
1
 10
33.707671
 20
0.273891
 30
0.0
 10
33.405408
 20
0.112125
 30
0.0
 10
31.097344
 20
-0.000000
 30
0.0
 10
28.069699
 20
-0.000000
 30
0.0
  0
SPLINE
  5
13b
100
AcDbEntity
  8
0
 62
7
100
AcDbSpline
 70
8
 71
3
 72
8
 73
4
 74
0
 40
0
 40
0
 40
0
 40
0
 40
1
 40
1
 40
1
 40
1
 10
28.069699
 20
-0.000000
 30
0.0
 10
24.063905
 20
-0.000000
 30
0.0
 10
22.831249
 20
0.081963
 30
0.0
 10
22.429910
 20
0.375005
 30
0.0
  0
LWPOLYLINE
  5
13c
100
AcDbEntity
  8
0
 62
7
100
AcDbPolyline
 90
3
 70
0
 10
35.698165
 20
74.610121
 30
0.0
 10
36.118551
 20
71.586286
 30
0.0
 10
35.536561
 20
71.115018
 30
0.0
  0
LWPOLYLINE
  5
13d
100
AcDbEntity
  8
0
 62
7
100
AcDbPolyline
 90
1
 70
1
 10
22.429910
 20
0.375005
 30
0.0
  0
SPLINE
  5
13e
100
AcDbEntity
  8
0
 62
7
100
AcDbSpline
 70
8
 71
3
 72
8
 73
4
 74
0
 40
0
 40
0
 40
0
 40
0
 40
1
 40
1
 40
1
 40
1
 10
24.488818
 20
7.419443
 30
0.0
 10
24.448485
 20
5.169979
 30
0.0
 10
24.474504
 20
3.175683
 30
0.0
 10
24.546661
 20
2.987672
 30
0.0
  0
SPLINE
  5
13f
100
AcDbEntity
  8
0
 62
7
100
AcDbSpline
 70
8
 71
3
 72
8
 73
4
 74
0
 40
0
 40
0
 40
0
 40
0
 40
1
 40
1
 40
1
 40
1
 10
24.546661
 20
2.987672
 30
0.0
 10
24.644607
 20
2.732429
 30
0.0
 10
25.552898
 20
2.645833
 30
0.0
 10
28.132119
 20
2.645833
 30
0.0
  0
LWPOLYLINE
  5
140
100
AcDbEntity
  8
0
 62
7
100
AcDbPolyline
 90
5
 70
0
 10
31.513862
 20
7.077604
 30
0.0
 10
31.441319
 20
11.509375
 30
0.0
 10
28.001735
 20
11.509375
 30
0.0
 10
24.562153
 20
11.509375
 30
0.0
 10
24.488818
 20
7.419443
 30
0.0
  0
SPLINE
  5
141
100
AcDbEntity
  8
0
 62
7
100
AcDbSpline
 70
8
 71
3
 72
8
 73
4
 74
0
 40
0
 40
0
 40
0
 40
0
 40
1
 40
1
 40
1
 40
1
 10
51.946527
 20
14.407248
 30
0.0
 10
51.946527
 20
14.473108
 30
0.0
 10
48.791371
 20
18.478521
 30
0.0
 10
44.935069
 20
23.308164
 30
0.0
  0
SPLINE
  5
142
100
AcDbEntity
  8
0
 62
7
100
AcDbSpline
 70
8
 71
3
 72
8
 73
4
 74
0
 40
0
 40
0
 40
0
 40
0
 40
1
 40
1
 40
1
 40
1
 10
44.935069
 20
23.308164
 30
0.0
 10
40.365820
 20
29.030705
 30
0.0
 10
37.923610
 20
32.300130
 30
0.0
 10
37.923610
 20
32.694518
 30
0.0
  0
SPLINE
  5
143
100
AcDbEntity
  8
0
 62
7
100
AcDbSpline
 70
8
 71
3
 72
8
 73
4
 74
0
 40
0
 40
0
 40
0
 40
0
 40
1
 40
1
 40
1
 40
1
 10
37.923610
 20
32.694518
 30
0.0
 10
37.923610
 20
34.020437
 30
0.0
 10
38.365515
 20
34.131250
 30
0.0
 10
43.653099
 20
34.131250
 30
0.0
  0
SPLINE
  5
144
100
AcDbEntity
  8
0
 62
7
100
AcDbSpline
 70
8
 71
3
 72
8
 73
4
 74
0
 40
0
 40
0
 40
0
 40
0
 40
1
 40
1
 40
1
 40
1
 10
43.653099
 20
34.131250
 30
0.0
 10
46.579205
 20
34.131250
 30
0.0
 10
48.515535
 20
34.230881
 30
0.0
 10
48.462845
 20
34.378731
 30
0.0
  0
SPLINE
  5
145
100
AcDbEntity
  8
0
 62
7
100
AcDbSpline
 70
8
 71
3
 72
8
 73
4
 74
0
 40
0
 40
0
 40
0
 40
0
 40
1
 40
1
 40
1
 40
1
 10
48.462845
 20
34.378731
 30
0.0
 10
48.414339
 20
34.514846
 30
0.0
 10
45.130199
 20
38.684962
 30
0.0
 10
41.164756
 20
43.645659
 30
0.0
  0
SPLINE
  5
146
100
AcDbEntity
  8
0
 62
7
100
AcDbSpline
 70
8
 71
3
 72
8
 73
4
 74
0
 40
0
 40
0
 40
0
 40
0
 40
1
 40
1
 40
1
 40
1
 10
41.164756
 20
43.645659
 30
0.0
 10
33.611619
 20
53.094496
 30
0.0
 10
33.174122
 20
53.803127
 30
0.0
 10
34.466633
 20
54.494859
 30
0.0
  0
SPLINE
  5
147
100
AcDbEntity
  8
0
 62
7
100
AcDbSpline
 70
8
 71
3
 72
8
 73
4
 74
0
 40
0
 40
0
 40
0
 40
0
 40
1
 40
1
 40
1
 40
1
 10
34.466633
 20
54.494859
 30
0.0
 10
34.748108
 20
54.645499
 30
0.0
 10
36.593576
 20
54.768750
 30
0.0
 10
38.567675
 20
54.768750
 30
0.0
  0
SPLINE
  5
148
100
AcDbEntity
  8
0
 62
7
100
AcDbSpline
 70
8
 71
3
 72
8
 73
4
 74
0
 40
0
 40
0
 40
0
 40
0
 40
1
 40
1
 40
1
 40
1
 10
38.567675
 20
54.768750
 30
0.0
 10
40.541773
 20
54.768750
 30
0.0
 10
42.156944
 20
54.844601
 30
0.0
 10
42.156944
 20
54.937305
 30
0.0
  0
SPLINE
  5
149
100
AcDbEntity
  8
0
 62
7
100
AcDbSpline
 70
8
 71
3
 72
8
 73
4
 74
0
 40
0
 40
0
 40
0
 40
0
 40
1
 40
1
 40
1
 40
1
 10
42.156944
 20
54.937305
 30
0.0
 10
42.156944
 20
55.200852
 30
0.0
 10
28.338423
 20
72.363542
 30
0.0
 10
28.126230
 20
72.363542
 30
0.0
  0
SPLINE
  5
14a
100
AcDbEntity
  8
0
 62
7
100
AcDbSpline
 70
8
 71
3
 72
8
 73
4
 74
0
 40
0
 40
0
 40
0
 40
0
 40
1
 40
1
 40
1
 40
1
 10
28.126230
 20
72.363542
 30
0.0
 10
27.965683
 20
72.363542
 30
0.0
 10
26.437996
 20
70.549845
 30
0.0
 10
23.151442
 20
66.457393
 30
0.0
  0
SPLINE
  5
14b
100
AcDbEntity
  8
0
 62
7
100
AcDbSpline
 70
8
 71
3
 72
8
 73
4
 74
0
 40
0
 40
0
 40
0
 40
0
 40
1
 40
1
 40
1
 40
1
 10
23.151442
 20
66.457393
 30
0.0
 10
22.763166
 20
65.973907
 30
0.0
 10
22.224003
 20
65.319063
 30
0.0
 10
21.953305
 20
65.002185
 30
0.0
  0
SPLINE
  5
14c
100
AcDbEntity
  8
0
 62
7
100
AcDbSpline
 70
8
 71
3
 72
8
 73
4
 74
0
 40
0
 40
0
 40
0
 40
0
 40
1
 40
1
 40
1
 40
1
 10
21.953305
 20
65.002185
 30
0.0
 10
21.682605
 20
64.685307
 30
0.0
 10
20.917261
 20
63.711667
 30
0.0
 10
20.252540
 20
62.838542
 30
0.0
  0
SPLINE
  5
14d
100
AcDbEntity
  8
0
 62
7
100
AcDbSpline
 70
8
 71
3
 72
8
 73
4
 74
0
 40
0
 40
0
 40
0
 40
0
 40
1
 40
1
 40
1
 40
1
 10
20.252540
 20
62.838542
 30
0.0
 10
19.587817
 20
61.965417
 30
0.0
 10
18.856799
 20
61.048397
 30
0.0
 10
18.628054
 20
60.800723
 30
0.0
  0
SPLINE
  5
14e
100
AcDbEntity
  8
0
 62
7
100
AcDbSpline
 70
8
 71
3
 72
8
 73
4
 74
0
 40
0
 40
0
 40
0
 40
0
 40
1
 40
1
 40
1
 40
1
 10
18.628054
 20
60.800723
 30
0.0
 10
17.930670
 20
60.045629
 30
0.0
 10
17.477344
 20
59.489462
 30
0.0
 10
15.981662
 20
57.553990
 30
0.0
  0
SPLINE
  5
14f
100
AcDbEntity
  8
0
 62
7
100
AcDbSpline
 70
8
 71
3
 72
8
 73
4
 74
0
 40
0
 40
0
 40
0
 40
0
 40
1
 40
1
 40
1
 40
1
 10
15.981662
 20
57.553990
 30
0.0
 10
15.191458
 20
56.531431
 30
0.0
 10
14.365918
 20
55.516198
 30
0.0
 10
14.147131
 20
55.297917
 30
0.0
  0
SPLINE
  5
150
100
AcDbEntity
  8
0
 62
7
100
AcDbSpline
 70
8
 71
3
 72
8
 73
4
 74
0
 40
0
 40
0
 40
0
 40
0
 40
1
 40
1
 40
1
 40
1
 10
14.147131
 20
55.297917
 30
0.0
 10
13.793487
 20
54.945087
 30
0.0
 10
14.196312
 20
54.886360
 30
0.0
 10
17.776836
 20
54.768750
 30
0.0
  0
SPLINE
  5
151
100
AcDbEntity
  8
0
 62
7
100
AcDbSpline
 70
8
 71
3
 72
8
 73
4
 74
0
 40
0
 40
0
 40
0
 40
0
 40
1
 40
1
 40
1
 40
1
 10
17.776836
 20
54.768750
 30
0.0
 10
23.535752
 20
54.579586
 30
0.0
 10
23.570127
 20
54.440143
 30
0.0
 10
19.204340
 20
48.978177
 30
0.0
  0
SPLINE
  5
152
100
AcDbEntity
  8
0
 62
7
100
AcDbSpline
 70
8
 71
3
 72
8
 73
4
 74
0
 40
0
 40
0
 40
0
 40
0
 40
1
 40
1
 40
1
 40
1
 10
19.204340
 20
48.978177
 30
0.0
 10
17.494470
 20
46.838986
 30
0.0
 10
15.797830
 20
44.700317
 30
0.0
 10
15.434028
 20
44.225580
 30
0.0
  0
SPLINE
  5
153
100
AcDbEntity
  8
0
 62
7
100
AcDbSpline
 70
8
 71
3
 72
8
 73
4
 74
0
 40
0
 40
0
 40
0
 40
0
 40
1
 40
1
 40
1
 40
1
 10
15.434028
 20
44.225580
 30
0.0
 10
15.070226
 20
43.750841
 30
0.0
 10
14.498630
 20
43.041578
 30
0.0
 10
14.163816
 20
42.649439
 30
0.0
  0
SPLINE
  5
154
100
AcDbEntity
  8
0
 62
7
100
AcDbSpline
 70
8
 71
3
 72
8
 73
4
 74
0
 40
0
 40
0
 40
0
 40
0
 40
1
 40
1
 40
1
 40
1
 10
14.163816
 20
42.649439
 30
0.0
 10
13.829002
 20
42.257300
 30
0.0
 10
12.919295
 20
41.103021
 30
0.0
 10
12.142246
 20
40.084375
 30
0.0
  0
SPLINE
  5
155
100
AcDbEntity
  8
0
 62
7
100
AcDbSpline
 70
8
 71
3
 72
8
 73
4
 74
0
 40
0
 40
0
 40
0
 40
0
 40
1
 40
1
 40
1
 40
1
 10
12.142246
 20
40.084375
 30
0.0
 10
10.739409
 20
38.245367
 30
0.0
 10
9.958595
 20
37.274053
 30
0.0
 10
9.270911
 20
36.512500
 30
0.0
  0
SPLINE
  5
156
100
AcDbEntity
  8
0
 62
7
100
AcDbSpline
 70
8
 71
3
 72
8
 73
4
 74
0
 40
0
 40
0
 40
0
 40
0
 40
1
 40
1
 40
1
 40
1
 10
9.270911
 20
36.512500
 30
0.0
 10
9.073804
 20
36.294219
 30
0.0
 10
8.579801
 20
35.669141
 30
0.0
 10
8.173128
 20
35.123437
 30
0.0
  0
LWPOLYLINE
  5
157
100
AcDbEntity
  8
0
 62
7
100
AcDbPolyline
 90
3
 70
0
 10
28.132119
 20
2.645833
 30
0.0
 10
31.586405
 20
2.645833
 30
0.0
 10
31.513862
 20
7.077604
 30
0.0
  0
SPLINE
  5
158
100
AcDbEntity
  8
0
 62
7
100
AcDbSpline
 70
8
 71
3
 72
8
 73
4
 74
0
 40
0
 40
0
 40
0
 40
0
 40
1
 40
1
 40
1
 40
1
 10
12.451200
 20
34.131250
 30
0.0
 10
17.098273
 20
34.131250
 30
0.0
 10
17.503321
 20
34.092973
 30
0.0
 10
17.937920
 20
33.612743
 30
0.0
  0
SPLINE
  5
159
100
AcDbEntity
  8
0
 62
7
100
AcDbSpline
 70
8
 71
3
 72
8
 73
4
 74
0
 40
0
 40
0
 40
0
 40
0
 40
1
 40
1
 40
1
 40
1
 10
17.937920
 20
33.612743
 30
0.0
 10
18.641209
 20
32.835620
 30
0.0
 10
18.338737
 20
32.005619
 30
0.0
 10
16.680575
 20
30.162500
 30
0.0
  0
SPLINE
  5
15a
100
AcDbEntity
  8
0
 62
7
100
AcDbSpline
 70
8
 71
3
 72
8
 73
4
 74
0
 40
0
 40
0
 40
0
 40
0
 40
1
 40
1
 40
1
 40
1
 10
16.680575
 20
30.162500
 30
0.0
 10
16.484199
 20
29.944219
 30
0.0
 10
15.744656
 20
28.991719
 30
0.0
 10
15.037153
 20
28.045833
 30
0.0
  0
SPLINE
  5
15b
100
AcDbEntity
  8
0
 62
7
100
AcDbSpline
 70
8
 71
3
 72
8
 73
4
 74
0
 40
0
 40
0
 40
0
 40
0
 40
1
 40
1
 40
1
 40
1
 10
15.037153
 20
28.045833
 30
0.0
 10
13.830629
 20
26.432796
 30
0.0
 10
13.561169
 20
26.101672
 30
0.0
 10
12.504585
 20
24.933704
 30
0.0
  0
SPLINE
  5
15c
100
AcDbEntity
  8
0
 62
7
100
AcDbSpline
 70
8
 71
3
 72
8
 73
4
 74
0
 40
0
 40
0
 40
0
 40
0
 40
1
 40
1
 40
1
 40
1
 10
12.504585
 20
24.933704
 30
0.0
 10
12.275839
 20
24.680844
 30
0.0
 10
11.510156
 20
23.700052
 30
0.0
 10
10.803065
 20
22.754167
 30
0.0
  0
SPLINE
  5
15d
100
AcDbEntity
  8
0
 62
7
100
AcDbSpline
 70
8
 71
3
 72
8
 73
4
 74
0
 40
0
 40
0
 40
0
 40
0
 40
1
 40
1
 40
1
 40
1
 10
10.803065
 20
22.754167
 30
0.0
 10
10.095974
 20
21.808281
 30
0.0
 10
9.355130
 20
20.855781
 30
0.0
 10
9.156743
 20
20.637500
 30
0.0
  0
SPLINE
  5
15e
100
AcDbEntity
  8
0
 62
7
100
AcDbSpline
 70
8
 71
3
 72
8
 73
4
 74
0
 40
0
 40
0
 40
0
 40
0
 40
1
 40
1
 40
1
 40
1
 10
9.156743
 20
20.637500
 30
0.0
 10
8.370917
 20
19.772868
 30
0.0
 10
4.321528
 20
14.582235
 30
0.0
 10
4.321528
 20
14.439569
 30
0.0
  0
SPLINE
  5
15f
100
AcDbEntity
  8
0
 62
7
100
AcDbSpline
 70
8
 71
3
 72
8
 73
4
 74
0
 40
0
 40
0
 40
0
 40
0
 40
1
 40
1
 40
1
 40
1
 10
4.321528
 20
14.439569
 30
0.0
 10
4.321528
 20
14.355932
 30
0.0
 10
15.037153
 20
14.287500
 30
0.0
 10
28.134027
 20
14.287500
 30
0.0
  0
SPLINE
  5
160
100
AcDbEntity
  8
0
 62
7
100
AcDbSpline
 70
8
 71
3
 72
8
 73
4
 74
0
 40
0
 40
0
 40
0
 40
0
 40
1
 40
1
 40
1
 40
1
 10
28.134027
 20
14.287500
 30
0.0
 10
41.230902
 20
14.287500
 30
0.0
 10
51.946527
 20
14.341385
 30
0.0
 10
51.946527
 20
14.407248
 30
0.0
  0
LWPOLYLINE
  5
161
100
AcDbEntity
  8
0
 62
7
100
AcDbPolyline
 90
3
 70
0
 10
8.173128
 20
35.123437
 30
0.0
 10
7.433721
 20
34.131250
 30
0.0
 10
12.451200
 20
34.131250
 30
0.0
  0
SPLINE
  5
162
100
AcDbEntity
  8
0
 62
7
100
AcDbSpline
 70
8
 71
3
 72
8
 73
4
 74
0
 40
0
 40
0
 40
0
 40
0
 40
1
 40
1
 40
1
 40
1
 10
32.674237
 20
77.268748
 30
0.0
 10
32.392927
 20
79.540017
 30
0.0
 10
32.560427
 20
79.950899
 30
0.0
 10
34.610035
 20
82.017330
 30
0.0
  0
SPLINE
  5
163
100
AcDbEntity
  8
0
 62
7
100
AcDbSpline
 70
8
 71
3
 72
8
 73
4
 74
0
 40
0
 40
0
 40
0
 40
0
 40
1
 40
1
 40
1
 40
1
 10
34.610035
 20
82.017330
 30
0.0
 10
35.257637
 20
82.670247
 30
0.0
 10
35.702026
 20
83.289918
 30
0.0
 10
35.597566
 20
83.394378
 30
0.0
  0
SPLINE
  5
164
100
AcDbEntity
  8
0
 62
7
100
AcDbSpline
 70
8
 71
3
 72
8
 73
4
 74
0
 40
0
 40
0
 40
0
 40
0
 40
1
 40
1
 40
1
 40
1
 10
35.597566
 20
83.394378
 30
0.0
 10
35.493105
 20
83.498837
 30
0.0
 10
34.418283
 20
83.755994
 30
0.0
 10
33.209069
 20
83.965836
 30
0.0
  0
SPLINE
  5
165
100
AcDbEntity
  8
0
 62
7
100
AcDbSpline
 70
8
 71
3
 72
8
 73
4
 74
0
 40
0
 40
0
 40
0
 40
0
 40
1
 40
1
 40
1
 40
1
 10
33.209069
 20
83.965836
 30
0.0
 10
30.784763
 20
84.386542
 30
0.0
 10
30.795783
 20
84.378008
 30
0.0
 10
29.313873
 20
86.981771
 30
0.0
  0
SPLINE
  5
166
100
AcDbEntity
  8
0
 62
7
100
AcDbSpline
 70
8
 71
3
 72
8
 73
4
 74
0
 40
0
 40
0
 40
0
 40
0
 40
1
 40
1
 40
1
 40
1
 10
29.313873
 20
86.981771
 30
0.0
 10
28.796234
 20
87.891277
 30
0.0
 10
28.265975
 20
88.635417
 30
0.0
 10
28.135514
 20
88.635417
 30
0.0
  0
SPLINE
  5
167
100
AcDbEntity
  8
0
 62
7
100
AcDbSpline
 70
8
 71
3
 72
8
 73
4
 74
0
 40
0
 40
0
 40
0
 40
0
 40
1
 40
1
 40
1
 40
1
 10
28.135514
 20
88.635417
 30
0.0
 10
27.901196
 20
88.635417
 30
0.0
 10
27.458043
 20
87.934786
 30
0.0
 10
26.711280
 20
86.383690
 30
0.0
  0
SPLINE
  5
168
100
AcDbEntity
  8
0
 62
7
100
AcDbSpline
 70
8
 71
3
 72
8
 73
4
 74
0
 40
0
 40
0
 40
0
 40
0
 40
1
 40
1
 40
1
 40
1
 10
26.711280
 20
86.383690
 30
0.0
 10
25.963463
 20
84.830398
 30
0.0
 10
25.170993
 20
84.235269
 30
0.0
 10
23.605446
 20
84.051270
 30
0.0
  0
SPLINE
  5
169
100
AcDbEntity
  8
0
 62
7
100
AcDbSpline
 70
8
 71
3
 72
8
 73
4
 74
0
 40
0
 40
0
 40
0
 40
0
 40
1
 40
1
 40
1
 40
1
 10
23.605446
 20
84.051270
 30
0.0
 10
21.891269
 20
83.849802
 30
0.0
 10
20.305054
 20
83.343477
 30
0.0
 10
20.658337
 20
83.110541
 30
0.0
  0
SPLINE
  5
16a
100
AcDbEntity
  8
0
 62
7
100
AcDbSpline
 70
8
 71
3
 72
8
 73
4
 74
0
 40
0
 40
0
 40
0
 40
0
 40
1
 40
1
 40
1
 40
1
 10
20.658337
 20
83.110541
 30
0.0
 10
20.794859
 20
83.020525
 30
0.0
 10
21.590628
 20
82.176072
 30
0.0
 10
22.426711
 20
81.233979
 30
0.0
  0
LWPOLYLINE
  5
16b
100
AcDbEntity
  8
0
 62
7
100
AcDbPolyline
 90
1
 70
1
 10
51.946527
 20
14.407248
 30
0.0
  0
SPLINE
  5
16c
100
AcDbEntity
  8
0
 62
7
100
AcDbSpline
 70
8
 71
3
 72
8
 73
4
 74
0
 40
0
 40
0
 40
0
 40
0
 40
1
 40
1
 40
1
 40
1
 10
23.783751
 20
78.058979
 30
0.0
 10
23.694039
 20
77.254822
 30
0.0
 10
23.554125
 20
76.150391
 30
0.0
 10
23.472829
 20
75.604688
 30
0.0
  0
SPLINE
  5
16d
100
AcDbEntity
  8
0
 62
7
100
AcDbSpline
 70
8
 71
3
 72
8
 73
4
 74
0
 40
0
 40
0
 40
0
 40
0
 40
1
 40
1
 40
1
 40
1
 10
23.472829
 20
75.604688
 30
0.0
 10
23.284482
 20
74.340423
 30
0.0
 10
23.492831
 20
74.336169
 30
0.0
 10
26.156209
 20
75.549903
 30
0.0
  0
SPLINE
  5
16e
100
AcDbEntity
  8
0
 62
7
100
AcDbSpline
 70
8
 71
3
 72
8
 73
4
 74
0
 40
0
 40
0
 40
0
 40
0
 40
1
 40
1
 40
1
 40
1
 10
26.156209
 20
75.549903
 30
0.0
 10
28.459155
 20
76.599390
 30
0.0
 10
27.998126
 20
76.649684
 30
0.0
 10
31.441319
 20
74.973342
 30
0.0
  0
SPLINE
  5
16f
100
AcDbEntity
  8
0
 62
7
100
AcDbSpline
 70
8
 71
3
 72
8
 73
4
 74
0
 40
0
 40
0
 40
0
 40
0
 40
1
 40
1
 40
1
 40
1
 10
31.441319
 20
74.973342
 30
0.0
 10
33.027443
 20
74.201127
 30
0.0
 10
33.049170
 20
74.241578
 30
0.0
 10
32.674237
 20
77.268748
 30
0.0
  0
LWPOLYLINE
  5
170
100
AcDbEntity
  8
0
 62
7
100
AcDbPolyline
 90
3
 70
0
 10
22.426711
 20
81.233979
 30
0.0
 10
23.946862
 20
79.521083
 30
0.0
 10
23.783751
 20
78.058979
 30
0.0
  0
LWPOLYLINE
  5
171
100
AcDbEntity
  8
0
 62
7
100
AcDbPolyline
 90
1
 70
1
 10
32.674237
 20
77.268748
 30
0.0
  0
ENDSEC
  0
SECTION
  2
OBJECTS
  0
DICTIONARY
  5
C
330
0
100
AcDbDictionary
  3
ACAD_GROUP
350
D
  3
ACAD_MLINESTYLE
350
17
  0
DICTIONARY
  5
D
330
C
100
AcDbDictionary
  0
DICTIONARY
  5
1A
330
C
100
AcDbDictionary
  0
DICTIONARY
  5
17
330
C
100
AcDbDictionary
  3
STANDARD
350
18
  0
DICTIONARY
  5
19
330
C
100
AcDbDictionary
  0
ENDSEC
  0
EOF
